<svg width="18" height="18" viewBox="0 0 18 18" fill="none" xmlns="http://www.w3.org/2000/svg">
<path d="M11.639 15.6234C6.7478 13.9754 4.12639 10.9828 2.45691 6.764C2.03955 5.92024 2.03953 3.81086 4.54375 2.46085C5.16979 2.12336 5.79585 2.12335 6.63059 2.96711C7.46533 3.81087 6.63058 2.96711 7.46533 3.81086C8.42536 4.78125 8.3232 5.625 8.15625 6.04688C7.98931 6.55313 7.2149 7.01712 7.46533 8.02963C7.71575 9.04213 8.96785 10.3921 9.96954 10.5609C10.9712 10.7296 11.5358 10.0969 11.9531 9.84375C12.3705 9.59062 13.0607 9.46665 13.7259 10.139C14.0625 10.4793 14.1432 10.5609 14.978 11.4046C15.8127 12.2484 15.9071 12.9332 15.5623 13.514C14.4844 15.7053 12.6709 15.9711 11.639 15.6234Z" stroke="#F15223" stroke-width="1.5" stroke-linecap="round" stroke-linejoin="round"/>
</svg>
