<svg width="28" height="28" viewBox="0 0 28 28" fill="none" xmlns="http://www.w3.org/2000/svg">
<path d="M13.9606 0.666672C11.6586 0.66617 9.39575 1.26166 7.3922 2.39517C5.38866 3.52868 3.71271 5.16161 2.52748 7.135C1.34226 9.1084 0.688136 11.355 0.628785 13.6562C0.569434 15.9574 1.10688 18.2348 2.1888 20.2667L0.733672 24.6321C0.61314 24.9935 0.595647 25.3813 0.683156 25.7521C0.770665 26.123 0.959717 26.4621 1.22912 26.7315C1.49853 27.0009 1.83764 27.1899 2.20845 27.2774C2.57926 27.365 2.96712 27.3475 3.32854 27.2269L7.69393 25.7718C9.48209 26.7229 11.4634 27.2541 13.4876 27.3251C15.5117 27.3962 17.5254 27.0051 19.3758 26.1817C21.2262 25.3583 22.8648 24.1241 24.167 22.5729C25.4693 21.0217 26.401 19.1942 26.8915 17.2291C27.382 15.2641 27.4184 13.2131 26.9979 11.2318C26.5775 9.25061 25.7111 7.3912 24.4647 5.79477C23.2183 4.19833 21.6246 2.90683 19.8046 2.01828C17.9845 1.12973 15.986 0.667503 13.9606 0.666672ZM13.9606 25.2821C11.9772 25.2834 10.0287 24.7611 8.31188 23.768C8.15606 23.6776 7.97919 23.6298 7.79906 23.6295C7.68872 23.6295 7.57913 23.6477 7.4747 23.6833L2.67854 25.2821L4.27726 20.4872C4.32335 20.3494 4.33963 20.2034 4.32505 20.0589C4.31046 19.9143 4.26533 19.7745 4.19265 19.6487C2.94902 17.4986 2.44971 14.9982 2.77217 12.5353C3.09463 10.0725 4.22084 7.7849 5.97609 6.02743C7.73134 4.26996 10.0175 3.14086 12.4799 2.81529C14.9424 2.48972 17.4434 2.98587 19.5951 4.22678C21.7468 5.46769 23.4288 7.38399 24.3803 9.6784C25.3317 11.9728 25.4994 14.5171 24.8573 16.9165C24.2152 19.316 22.7992 21.4364 20.829 22.949C18.8588 24.4616 16.4445 25.2816 13.9606 25.2821ZM15.4991 14C15.4991 14.3043 15.4088 14.6017 15.2398 14.8547C15.0707 15.1077 14.8305 15.3049 14.5493 15.4214C14.2682 15.5378 13.9589 15.5683 13.6605 15.5089C13.362 15.4495 13.0879 15.303 12.8727 15.0879C12.6576 14.8727 12.5111 14.5986 12.4517 14.3001C12.3923 14.0017 12.4228 13.6924 12.5392 13.4113C12.6557 13.1301 12.8529 12.8899 13.1059 12.7208C13.3589 12.5518 13.6563 12.4615 13.9606 12.4615C14.3686 12.4615 14.7599 12.6236 15.0484 12.9121C15.337 13.2007 15.4991 13.592 15.4991 14ZM9.85803 14C9.85803 14.3043 9.7678 14.6017 9.59875 14.8547C9.4297 15.1077 9.18943 15.3049 8.90831 15.4214C8.6272 15.5378 8.31786 15.5683 8.01943 15.5089C7.721 15.4495 7.44687 15.303 7.23171 15.0879C7.01655 14.8727 6.87003 14.5986 6.81067 14.3001C6.75131 14.0017 6.78177 13.6924 6.89822 13.4113C7.01466 13.1301 7.21185 12.8899 7.46485 12.7208C7.71784 12.5518 8.01529 12.4615 8.31957 12.4615C8.72759 12.4615 9.11891 12.6236 9.40742 12.9121C9.69594 13.2007 9.85803 13.592 9.85803 14ZM21.1401 14C21.1401 14.3043 21.0499 14.6017 20.8808 14.8547C20.7118 15.1077 20.4715 15.3049 20.1904 15.4214C19.9092 15.5378 19.5999 15.5683 19.3015 15.5089C19.003 15.4495 18.7289 15.303 18.5138 15.0879C18.2986 14.8727 18.1521 14.5986 18.0927 14.3001C18.0334 14.0017 18.0638 13.6924 18.1803 13.4113C18.2967 13.1301 18.4939 12.8899 18.7469 12.7208C18.9999 12.5518 19.2973 12.4615 19.6016 12.4615C20.0096 12.4615 20.401 12.6236 20.6895 12.9121C20.978 13.2007 21.1401 13.592 21.1401 14Z" fill="white"/>
</svg>
