<svg width="24" height="25" viewBox="0 0 24 25" fill="none" xmlns="http://www.w3.org/2000/svg">
<path d="M21 16.6261C21 21.1621 20 21.6621 12 21.6621C4.00003 21.6621 2.99999 20.6621 3.00003 16.6261C3.00006 14.4848 3 14.9807 3 13.1065C3 11.2323 3.57474 10.1621 6.94411 7.45158C8.35369 6.31763 9.57248 5.40085 10.4601 4.75321C11.3925 4.07287 12.6264 4.04658 13.5609 4.72398C14.3853 5.3215 15.544 6.20399 17.0559 7.45158C20.5 10.2937 21 11.1621 21 13.1065C20.9999 16.8666 21 13.4848 21 16.6261Z" stroke="#F15223" stroke-width="1.5" stroke-linecap="round" stroke-linejoin="round"/>
<path d="M9 18.6621C9.375 17.1621 9 15.6621 12 15.6621C15 15.6621 14.625 17.1621 15 18.6621" stroke="#F15223" stroke-width="1.5" stroke-linecap="round" stroke-linejoin="round"/>
</svg>
