<svg width="34" height="43" viewBox="0 0 34 43" fill="none" xmlns="http://www.w3.org/2000/svg">
<path d="M15.2068 15.8521C15.8721 15.8521 16.4114 15.3136 16.4114 14.6493C16.4114 13.9851 15.8721 13.4466 15.2068 13.4466C14.5416 13.4466 14.0023 13.9851 14.0023 14.6493C14.0023 15.3136 14.5416 15.8521 15.2068 15.8521Z" fill="#F15223"/>
<path d="M32.7954 15.8521C33.4607 15.8521 34 15.3136 34 14.6493C34 13.9851 33.4607 13.4466 32.7954 13.4466C32.1302 13.4466 31.5909 13.9851 31.5909 14.6493C31.5909 15.3136 32.1302 15.8521 32.7954 15.8521Z" fill="#F15223"/>
<path d="M28.9806 23.0424C29.2531 22.5005 29.4555 21.9823 29.6055 21.4974C30.841 16.9395 28.4926 16.091 26.8214 16.0244L25.7145 16.1171L25.7526 16.0767H25.7538L26.869 14.9072L30.3065 11.3073L30.3041 11.3204L30.3922 11.2289C29.3745 7.65506 27.1023 4.61015 24.0814 2.59685C21.6235 0.955546 18.6693 0 15.4913 0C13.7023 0 11.9836 0.303065 10.3851 0.860467C4.80748 2.80365 0.684402 7.84047 0.0773672 13.9125C0.0261858 14.4247 0 14.9429 0 15.4682V42.0951C4.7194 41.1111 8.59252 37.8237 10.3851 33.4631V15.3624C10.3851 12.7097 12.5371 10.5609 15.1937 10.5609C16.134 10.5609 17.0113 10.8295 17.7516 11.2954C17.8206 11.3382 17.8885 11.3834 17.954 11.4297C18.092 11.526 18.2241 11.6294 18.3503 11.7399C18.5777 11.9372 18.7871 12.1571 18.9752 12.3936L18.9776 12.3971L22.4841 16.0684L22.5293 16.1159L21.4236 16.0232C20.9403 16.0422 20.4035 16.1207 19.906 16.3227C18.9812 16.6995 18.1968 17.5029 18.1682 19.1371C18.1587 19.6529 18.2253 20.2519 18.386 20.9459C18.5396 21.583 18.7848 22.2901 19.1633 23.0413C20.0881 24.6826 21.3046 26.1373 22.7424 27.3376C23.1495 27.6716 23.591 28.0032 24.0719 28.3336C24.5528 28.0044 24.9944 27.6716 25.4014 27.3376C26.8393 26.1373 28.0557 24.6826 28.9806 23.0424Z" fill="#F15223"/>
</svg>
