<svg width="24" height="24" viewBox="0 0 24 24" fill="none" xmlns="http://www.w3.org/2000/svg">
<circle cx="12" cy="12" r="12" fill="#F2F2F2"/>
<path d="M14.639 18.6234C9.7478 16.9754 7.12639 13.9828 5.45691 9.764C5.03955 8.92024 5.03953 6.81086 7.54375 5.46085C8.16979 5.12336 8.79585 5.12335 9.63059 5.96711C10.4653 6.81087 9.63058 5.96711 10.4653 6.81086C11.4254 7.78125 11.3232 8.625 11.1563 9.04688C10.9893 9.55313 10.2149 10.0171 10.4653 11.0296C10.7157 12.0421 11.9679 13.3921 12.9695 13.5609C13.9712 13.7296 14.5358 13.0969 14.9531 12.8438C15.3705 12.5906 16.0607 12.4666 16.7259 13.139C17.0625 13.4793 17.1432 13.5609 17.978 14.4046C18.8127 15.2484 18.9071 15.9332 18.5623 16.514C17.4844 18.7053 15.6709 18.9711 14.639 18.6234Z" stroke="#F15223" stroke-width="1.5" stroke-linecap="round" stroke-linejoin="round"/>
</svg>
